<svg xmlns="http://www.w3.org/2000/svg" enable-background="new -143 145 512 512" viewBox="-143 145 512 512" fill="cyan" height="24" width="24"><path d="m113 145c-141.4 0-256 114.6-256 256s114.6 256 256 256 256-114.6 256-256-114.6-256-256-256zm159.8 415.7c-20.8 20.8-44.9 37.1-71.8 48.4-27.8 11.8-57.4 17.7-88 17.7-30.5 0-60.1-6-88-17.7-26.9-11.4-51.1-27.7-71.8-48.4-20.8-20.8-37.1-44.9-48.4-71.8-11.8-27.8-17.8-57.4-17.8-87.9s6-60.1 17.7-88c11.4-26.9 27.7-51.1 48.4-71.8 20.9-20.8 45-37.1 71.9-48.5 27.9-11.7 57.5-17.7 88-17.7s60.1 6 88 17.7c26.9 11.4 51.1 27.7 71.8 48.4 20.8 20.8 37.1 44.9 48.4 71.8 11.8 27.8 17.7 57.4 17.7 88 0 30.5-6 60.1-17.7 88-11.4 26.9-27.7 51.1-48.4 71.8z"/><path d="m-8.5 348.4h49.9v159.7h-49.9z"/><path d="m15.4 273c-18.4 0-30.5 11.9-30.5 27.7 0 15.5 11.7 27.7 29.8 27.7h.4c18.8 0 30.5-12.3 30.4-27.7-.4-15.8-11.7-27.7-30.1-27.7z"/><path d="m177.7 346.9c-28.6 0-46.5 15.6-49.8 26.6v-25.1h-56.1c.7 13.3 0 159.7 0 159.7h56.1v-86.3c0-4.9-.2-9.7 1.2-13.1 3.8-9.6 12.1-19.6 27-19.6 19.5 0 28.3 14.8 28.3 36.4v82.6h56.6v-88.8c0-49.4-27.8-72.4-63.3-72.4z"/></svg>